<?xml version="1.0" encoding="UTF-8" standalone="no"?>
<!DOCTYPE svg PUBLIC "-//W3C//DTD SVG 1.1//EN"
 "http://www.w3.org/Graphics/SVG/1.1/DTD/svg11.dtd">
<!-- Generated by graphviz version 2.36.0 (20140111.2315)
 -->
<!-- Title: g Pages: 1 -->
<svg width="624pt" height="199pt"
 viewBox="0.00 0.00 624.00 199.00" xmlns="http://www.w3.org/2000/svg" xmlns:xlink="http://www.w3.org/1999/xlink">
<g id="graph0" class="graph" transform="scale(1 1) rotate(0) translate(4 195)">
<title>g</title>
<polygon fill="white" stroke="none" points="-4,4 -4,-195 620,-195 620,4 -4,4"/>
<g id="clust1" class="cluster"><title>cluster_0</title>
</g>
<!-- e -->
<g id="node1" class="node"><title>e</title>
<ellipse fill="black" stroke="black" cx="90" cy="-92" rx="1.8" ry="1.8"/>
</g>
<!-- Ti -->
<g id="node2" class="node"><title>Ti</title>
<polygon fill="none" stroke="black" points="166,-110 110,-110 110,-74 166,-74 166,-110"/>
<text text-anchor="start" x="118" y="-89.3" font-family="Times,serif" font-size="14.00">(T</text>
<text text-anchor="start" x="131" y="-89.3" font-family="Times,serif" baseline-shift="sub" font-size="14.00">i</text>
<text text-anchor="start" x="135" y="-89.3" font-family="Times,serif" font-size="14.00"> s)</text>
<text text-anchor="start" x="148" y="-89.3" font-family="Times,serif" baseline-shift="super" font-size="14.00">&#45;1</text>
</g>
<!-- e&#45;&gt;Ti -->
<g id="edge3" class="edge"><title>e&#45;&gt;Ti</title>
<path fill="none" stroke="black" d="M92.1371,-92C93.5777,-92 96.2878,-92 99.6915,-92"/>
<polygon fill="black" stroke="black" points="99.9257,-95.5001 109.926,-92 99.9257,-88.5001 99.9257,-95.5001"/>
</g>
<!-- sum_kp -->
<g id="node11" class="node"><title>sum_kp</title>
<ellipse fill="none" stroke="black" cx="210" cy="-92" rx="18" ry="18"/>
<text text-anchor="start" x="205.5" y="-88.3" font-family="Times,serif" font-size="14.00">Σ</text>
</g>
<!-- e&#45;&gt;sum_kp -->
<g id="edge2" class="edge"><title>e&#45;&gt;sum_kp</title>
<path fill="none" stroke="black" d="M91.474,-93.2571C93.1771,-97.567 99.4512,-111.768 110,-117 135.482,-129.64 146.912,-125.681 174,-117 178.898,-115.43 183.694,-112.896 188.088,-110.029"/>
<polygon fill="black" stroke="black" points="190.465,-112.625 196.447,-103.881 186.318,-106.986 190.465,-112.625"/>
</g>
<!-- Ti&#45;&gt;sum_kp -->
<g id="edge15" class="edge"><title>Ti&#45;&gt;sum_kp</title>
<path fill="none" stroke="black" d="M166.264,-92C171.236,-92 176.426,-92 181.407,-92"/>
<polygon fill="black" stroke="black" points="181.809,-95.5001 191.809,-92 181.809,-88.5001 181.809,-95.5001"/>
</g>
<!-- sum_e -->
<g id="node3" class="node"><title>sum_e</title>
<ellipse fill="none" stroke="black" cx="52" cy="-92" rx="18" ry="18"/>
<text text-anchor="start" x="47.5" y="-88.3" font-family="Times,serif" font-size="14.00">Σ</text>
</g>
<!-- sum_e&#45;&gt;e -->
<g id="edge8" class="edge"><title>sum_e&#45;&gt;e</title>
<path fill="none" stroke="black" d="M70.1565,-92C77.6902,-92 85.4213,-92 88.0556,-92"/>
<text text-anchor="middle" x="84.5556" y="-80.8" font-family="Times,serif" font-size="14.00">e</text>
</g>
<!-- y -->
<g id="node17" class="node"><title>y</title>
<ellipse fill="black" stroke="black" cx="542" cy="-92" rx="1.8" ry="1.8"/>
</g>
<!-- sum_e&#45;&gt;y -->
<g id="edge10" class="edge"><title>sum_e&#45;&gt;y</title>
<path fill="none" stroke="black" d="M52.77,-63.6737C54.2176,-36.6393 61.2909,-0 89,-0 89,-0 89,-0 494,-0 536.328,-0 540.557,-78.1865 540.959,-90.4032"/>
<polygon fill="black" stroke="black" points="49.267,-63.7202 52.4558,-73.8238 56.2636,-63.9369 49.267,-63.7202"/>
<text text-anchor="start" x="40.4558" y="-63.6238" font-family="Times,serif" font-weight="bold" font-size="14.00">− </text>
</g>
<!-- actuator -->
<g id="node4" class="node"><title>actuator</title>
<polygon fill="lightgrey" stroke="black" points="423.5,-110 366.5,-110 366.5,-74 423.5,-74 423.5,-110"/>
<text text-anchor="start" x="374.5" y="-89.3" font-family="Times,serif" baseline-shift="super" font-size="14.00">u(s)</text>
<text text-anchor="start" x="393.5" y="-89.3" font-family="Times,serif" font-size="14.00">⁄</text>
<text text-anchor="start" x="396.5" y="-89.3" font-family="Times,serif" baseline-shift="sub" font-size="14.00">v(s)</text>
</g>
<!-- u -->
<g id="node15" class="node"><title>u</title>
<ellipse fill="black" stroke="black" cx="444" cy="-92" rx="1.8" ry="1.8"/>
</g>
<!-- actuator&#45;&gt;u -->
<g id="edge1" class="edge"><title>actuator&#45;&gt;u</title>
<path fill="none" stroke="black" d="M423.612,-92C431.924,-92 439.528,-92 442.087,-92"/>
<text text-anchor="middle" x="438.587" y="-80.8" font-family="Times,serif" font-size="14.00">u</text>
</g>
<!-- f -->
<g id="node5" class="node"><title>f</title>
<ellipse fill="black" stroke="black" cx="210" cy="-41" rx="1.8" ry="1.8"/>
</g>
<!-- Tf -->
<g id="node13" class="node"><title>Tf</title>
<polygon fill="none" stroke="black" points="325.5,-59 246.5,-59 246.5,-23 325.5,-23 325.5,-59"/>
<text text-anchor="start" x="254.5" y="-38.3" font-family="Times,serif" font-size="14.00">(1 + T</text>
<text text-anchor="start" x="290.5" y="-38.3" font-family="Times,serif" baseline-shift="sub" font-size="14.00">f</text>
<text text-anchor="start" x="294.5" y="-38.3" font-family="Times,serif" font-size="14.00"> s)</text>
<text text-anchor="start" x="307.5" y="-38.3" font-family="Times,serif" baseline-shift="super" font-size="14.00">&#45;1</text>
</g>
<!-- f&#45;&gt;Tf -->
<g id="edge4" class="edge"><title>f&#45;&gt;Tf</title>
<path fill="none" stroke="black" d="M211.831,-41C215.483,-41 230.619,-41 246.185,-41"/>
<text text-anchor="middle" x="214.331" y="-29.8" font-family="Times,serif" font-size="14.00">f</text>
</g>
<!-- kp -->
<g id="node6" class="node"><title>kp</title>
<polygon fill="none" stroke="black" points="313,-110 259,-110 259,-74 313,-74 313,-110"/>
<text text-anchor="start" x="279" y="-89.3" font-family="Times,serif" font-size="14.00">k</text>
<text text-anchor="start" x="286" y="-89.3" font-family="Times,serif" baseline-shift="sub" font-size="14.00">p</text>
</g>
<!-- v -->
<g id="node16" class="node"><title>v</title>
<ellipse fill="black" stroke="black" cx="346" cy="-92" rx="1.8" ry="1.8"/>
</g>
<!-- kp&#45;&gt;v -->
<g id="edge5" class="edge"><title>kp&#45;&gt;v</title>
<path fill="none" stroke="black" d="M313.285,-92C326.233,-92 339.91,-92 343.867,-92"/>
<text text-anchor="middle" x="340.367" y="-80.8" font-family="Times,serif" font-size="14.00">v</text>
</g>
<!-- output -->
<!-- process -->
<g id="node8" class="node"><title>process</title>
<polygon fill="lightgrey" stroke="black" points="521.5,-110 464.5,-110 464.5,-74 521.5,-74 521.5,-110"/>
<text text-anchor="start" x="472.5" y="-89.3" font-family="Times,serif" baseline-shift="super" font-size="14.00">y(s)</text>
<text text-anchor="start" x="491.5" y="-89.3" font-family="Times,serif" font-size="14.00">⁄</text>
<text text-anchor="start" x="494.5" y="-89.3" font-family="Times,serif" baseline-shift="sub" font-size="14.00">u(s)</text>
</g>
<!-- process&#45;&gt;y -->
<g id="edge6" class="edge"><title>process&#45;&gt;y</title>
<path fill="none" stroke="black" d="M521.612,-92C529.924,-92 537.528,-92 540.087,-92"/>
</g>
<!-- r -->
<g id="node9" class="node"><title>r</title>
<ellipse fill="black" stroke="black" cx="2" cy="-92" rx="1.8" ry="1.8"/>
</g>
<!-- r&#45;&gt;sum_e -->
<g id="edge7" class="edge"><title>r&#45;&gt;sum_e</title>
<path fill="none" stroke="black" d="M3.83313,-92C6.43809,-92 14.792,-92 23.7607,-92"/>
<polygon fill="black" stroke="black" points="23.8742,-95.5001 33.8742,-92 23.8742,-88.5001 23.8742,-95.5001"/>
<text text-anchor="middle" x="15" y="-95.8" font-family="Times,serif" font-size="14.00">r</text>
</g>
<!-- sum_es -->
<g id="node10" class="node"><title>sum_es</title>
<ellipse fill="none" stroke="black" cx="395" cy="-142" rx="18" ry="18"/>
<text text-anchor="start" x="390.5" y="-138.3" font-family="Times,serif" font-size="14.00">Σ</text>
</g>
<!-- sum_es&#45;&gt;u -->
<g id="edge9" class="edge"><title>sum_es:e&#45;&gt;u:n</title>
<path fill="none" stroke="black" d="M424.238,-140.448C440.285,-134.994 444,-115.909 444,-95"/>
<polygon fill="black" stroke="black" points="423.362,-137.04 414,-142 424.412,-143.961 423.362,-137.04"/>
</g>
<!-- sum_kp&#45;&gt;kp -->
<g id="edge11" class="edge"><title>sum_kp&#45;&gt;kp</title>
<path fill="none" stroke="black" d="M228.163,-92C234.302,-92 241.475,-92 248.618,-92"/>
<polygon fill="black" stroke="black" points="248.936,-95.5001 258.936,-92 248.936,-88.5001 248.936,-95.5001"/>
</g>
<!-- Td -->
<g id="node12" class="node"><title>Td</title>
<polygon fill="none" stroke="black" points="165,-58 111,-58 111,-22 165,-22 165,-58"/>
<text text-anchor="start" x="125.5" y="-37.3" font-family="Times,serif" font-size="14.00">T</text>
<text text-anchor="start" x="134.5" y="-37.3" font-family="Times,serif" baseline-shift="sub" font-size="14.00">d</text>
<text text-anchor="start" x="141.5" y="-37.3" font-family="Times,serif" font-size="14.00"> s</text>
</g>
<!-- Td&#45;&gt;f -->
<g id="edge12" class="edge"><title>Td&#45;&gt;f</title>
<path fill="none" stroke="black" d="M175.07,-40.5153C189.644,-40.7235 203.97,-40.9281 207.928,-40.9847"/>
<polygon fill="black" stroke="black" points="175.114,-37.0157 165.065,-40.3724 175.014,-44.0149 175.114,-37.0157"/>
</g>
<!-- Td&#45;&gt;sum_kp -->
<g id="edge13" class="edge"><title>Td&#45;&gt;sum_kp</title>
<path fill="none" stroke="black" d="M165.212,-56.7682C168.209,-58.8198 171.194,-60.9251 174,-63 178.68,-66.4599 183.568,-70.3331 188.156,-74.0943"/>
<polygon fill="black" stroke="black" points="186.062,-76.9057 195.981,-80.6302 190.549,-71.5333 186.062,-76.9057"/>
<text text-anchor="start" x="171.981" y="-70.4302" font-family="Times,serif" font-weight="bold" font-size="14.00">−  </text>
</g>
<!-- Tf&#45;&gt;y -->
<g id="edge14" class="edge"><title>Tf&#45;&gt;y</title>
<path fill="none" stroke="black" d="M335.698,-45.8097C338.844,-45.9312 341.965,-46 345,-46 345,-46 345,-46 494,-46 520.489,-46 537.567,-83.7793 540.537,-90.8629"/>
<polygon fill="black" stroke="black" points="335.822,-42.3114 325.646,-45.2622 335.441,-49.301 335.822,-42.3114"/>
</g>
<!-- Tt -->
<g id="node14" class="node"><title>Tt</title>
<polygon fill="none" stroke="black" points="166,-191 110,-191 110,-155 166,-155 166,-191"/>
<text text-anchor="start" x="118" y="-170.3" font-family="Times,serif" font-size="14.00">(T</text>
<text text-anchor="start" x="131" y="-170.3" font-family="Times,serif" baseline-shift="sub" font-size="14.00">t</text>
<text text-anchor="start" x="135" y="-170.3" font-family="Times,serif" font-size="14.00"> s)</text>
<text text-anchor="start" x="148" y="-170.3" font-family="Times,serif" baseline-shift="super" font-size="14.00">&#45;1</text>
</g>
<!-- Tt&#45;&gt;sum_es -->
<g id="edge16" class="edge"><title>Tt&#45;&gt;sum_es:nw</title>
<path fill="none" stroke="black" d="M176.417,-173.732C186.954,-173.885 198.426,-174 209,-174 209,-174 209,-174 347,-174 364.311,-174 368.76,-167.24 381,-155"/>
<polygon fill="black" stroke="black" points="176.312,-170.23 166.258,-173.57 176.201,-177.229 176.312,-170.23"/>
<text text-anchor="start" x="280" y="-178.8" font-family="Times,serif" font-size="14.00">e</text>
<text text-anchor="start" x="287" y="-178.8" font-family="Times,serif" baseline-shift="sub" font-size="14.00">s</text>
</g>
<!-- Tt&#45;&gt;sum_kp -->
<g id="edge17" class="edge"><title>Tt&#45;&gt;sum_kp</title>
<path fill="none" stroke="black" d="M166.456,-156.653C172.714,-152.107 178.988,-146.805 184,-141 189.857,-134.216 194.779,-125.822 198.665,-117.908"/>
<polygon fill="black" stroke="black" points="201.929,-119.187 202.884,-108.636 195.557,-116.288 201.929,-119.187"/>
</g>
<!-- u&#45;&gt;process -->
<g id="edge18" class="edge"><title>u&#45;&gt;process</title>
<path fill="none" stroke="black" d="M445.816,-92C447.201,-92 450.246,-92 454.145,-92"/>
<polygon fill="black" stroke="black" points="454.418,-95.5001 464.418,-92 454.418,-88.5001 454.418,-95.5001"/>
</g>
<!-- v&#45;&gt;actuator -->
<g id="edge19" class="edge"><title>v&#45;&gt;actuator</title>
<path fill="none" stroke="black" d="M347.816,-92C349.201,-92 352.246,-92 356.145,-92"/>
<polygon fill="black" stroke="black" points="356.418,-95.5001 366.418,-92 356.418,-88.5001 356.418,-95.5001"/>
</g>
<!-- v&#45;&gt;sum_es -->
<g id="edge20" class="edge"><title>v:n&#45;&gt;sum_es:w</title>
<path fill="none" stroke="black" d="M346,-95C346,-115.909 349.715,-134.994 365.762,-140.448"/>
<polygon fill="black" stroke="black" points="365.588,-143.961 376,-142 366.638,-137.04 365.588,-143.961"/>
<text text-anchor="start" x="367" y="-131.8" font-family="Times,serif" font-weight="bold" font-size="14.00">−</text>
</g>
<!-- y&#45;&gt;output -->
<g id="edge21" class="edge"><title>y&#45;&gt;output</title>
<path fill="none" stroke="black" d="M544.112,-92C545.55,-92 548.282,-92 551.707,-92"/>
<polygon fill="black" stroke="black" points="551.986,-95.5001 561.986,-92 551.986,-88.5001 551.986,-95.5001"/>
<text text-anchor="middle" x="547.612" y="-80.8" font-family="Times,serif" font-size="14.00">y</text>
</g>
</g>
</svg>
